<?xml version="1.0" standalone="no"?>
<!DOCTYPE svg PUBLIC "-//W3C//DTD SVG 20010904//EN"
 "http://www.w3.org/TR/2001/REC-SVG-20010904/DTD/svg10.dtd">
<svg version="1.0" xmlns="http://www.w3.org/2000/svg"
 width="1280.000000pt" height="1280.000000pt" viewBox="0 0 1280.000000 1280.000000"
 preserveAspectRatio="xMidYMid meet">
<metadata>
Created by potrace 1.14, written by Peter Selinger 2001-2017
</metadata>
<g transform="translate(0.000000,1280.000000) scale(0.100000,-0.100000)"
fill="#000000" stroke="none">
<path d="M6125 12794 c-27 -2 -122 -9 -210 -15 -1257 -85 -2526 -586 -3520
-1388 -408 -330 -805 -740 -1117 -1156 -651 -867 -1074 -1897 -1217 -2965 -44
-325 -55 -493 -55 -865 0 -364 6 -478 45 -795 157 -1284 696 -2475 1566 -3460
132 -149 446 -460 593 -586 960 -824 2085 -1333 3320 -1503 303 -42 502 -55
860 -55 362 -1 510 8 835 50 1160 147 2273 622 3185 1358 422 340 854 794
1171 1231 617 850 1019 1851 1158 2885 45 328 55 492 55 870 0 378 -10 542
-55 870 -128 956 -477 1872 -1022 2690 -390 585 -908 1131 -1482 1562 -966
725 -2109 1157 -3335 1258 -128 11 -685 21 -775 14z m537 -5105 c369 -74 684
-301 874 -627 368 -632 153 -1438 -481 -1802 -657 -378 -1494 -125 -1833 555
-97 194 -135 360 -135 585 0 229 38 391 140 595 196 393 588 664 1031 715 107
12 288 3 404 -21z m-1880 -1481 c3 -18 14 -73 23 -123 98 -540 501 -1013 1030
-1210 776 -289 1654 59 2020 800 65 130 118 286 140 410 9 50 20 105 23 123
l7 32 2230 0 2230 0 -3 -88 c-15 -457 -94 -954 -223 -1407 -347 -1224 -1058
-2294 -2059 -3101 -447 -360 -1002 -683 -1555 -904 -916 -365 -1937 -501
-2930 -389 -954 108 -1866 438 -2660 964 -529 350 -1001 777 -1392 1261 -748
926 -1212 2061 -1323 3234 -13 139 -29 423 -25 430 2 3 1006 4 2232 3 l2228
-3 7 -32z"/>
<path d="M6224 7195 c-194 -43 -383 -172 -496 -338 -183 -270 -185 -639 -4
-908 152 -226 403 -359 676 -359 227 0 420 81 577 241 157 160 233 346 233
569 0 386 -266 716 -642 795 -85 18 -261 18 -344 0z m356 -161 c219 -65 389
-237 456 -460 25 -82 25 -266 0 -349 -69 -225 -237 -394 -462 -461 -82 -25
-266 -25 -348 0 -224 67 -395 238 -462 462 -25 82 -25 266 0 348 76 253 288
440 541 480 56 8 220 -3 275 -20z"/>
</g>
</svg>
